<svg width="16" height="16" viewBox="0 0 16 16" fill="none" xmlns="http://www.w3.org/2000/svg">
<g clip-path="url(#clip0_180_9922)">
<path fill-rule="evenodd" clip-rule="evenodd" d="M1.75866 3.28608C1.95722 3.08758 2.2027 2.94246 2.47233 2.86418C2.74196 2.7859 3.02699 2.77701 3.30097 2.83832C3.57496 2.89964 3.82901 3.02917 4.03956 3.2149C4.2501 3.40064 4.41032 3.63655 4.50533 3.90074C5.32309 3.57449 6.21644 3.48612 7.08227 3.64584C7.94811 3.80556 8.75113 4.20685 9.39866 4.80341L9.53666 4.93541L14.722 10.1214C14.8368 10.2362 14.9057 10.3889 14.9159 10.551C14.9261 10.713 14.8768 10.8731 14.7773 11.0014L14.722 11.0641L13.308 12.4781C13.2081 12.578 13.079 12.6436 12.9394 12.6654C12.7999 12.6872 12.6569 12.6641 12.5313 12.5994L12.4573 12.5547L10.068 10.9014C9.38511 11.8913 8.34643 12.5794 7.16857 12.8221C5.99072 13.0648 4.76463 12.8435 3.74601 12.2042C2.72739 11.5649 1.99489 10.5571 1.70126 9.3909C1.40763 8.2247 1.57555 6.99015 2.17 5.94474C1.93729 5.82416 1.7363 5.65039 1.58335 5.43755C1.43041 5.2247 1.32981 4.97879 1.28974 4.71978C1.24966 4.46076 1.27124 4.19595 1.35272 3.94684C1.4342 3.69773 1.57328 3.47135 1.75866 3.28608ZM3.88 5.87874C3.53683 6.22263 3.27298 6.63737 3.10693 7.09393C2.94087 7.55049 2.87662 8.03783 2.91867 8.52182C2.96072 9.00582 3.10806 9.47477 3.35037 9.89585C3.59269 10.3169 3.92411 10.6799 4.32144 10.9595C4.71877 11.239 5.17241 11.4284 5.65059 11.5142C6.12876 11.6 6.61992 11.5803 7.08967 11.4564C7.55943 11.3325 7.99641 11.1074 8.37004 10.7969C8.74367 10.4863 9.04491 10.0979 9.25266 9.65874C9.29394 9.57123 9.35378 9.49376 9.42801 9.4317C9.50224 9.36964 9.58909 9.32448 9.68253 9.29936C9.77597 9.27424 9.87376 9.26976 9.9691 9.28623C10.0645 9.3027 10.1551 9.33973 10.2347 9.39474L12.7587 11.1414L13.308 10.5927L8.594 5.87874C7.96888 5.25364 7.12104 4.90245 6.237 4.90245C5.35295 4.90245 4.50512 5.25364 3.88 5.87874ZM7.65066 6.82141C7.83888 7.00655 7.98859 7.22712 8.09114 7.4704C8.19369 7.71369 8.24706 7.97487 8.24816 8.23888C8.24927 8.50289 8.19809 8.76451 8.09758 9.00864C7.99707 9.25278 7.84922 9.4746 7.66256 9.6613C7.4759 9.84801 7.25411 9.99591 7.01 10.0965C6.76589 10.197 6.50428 10.2483 6.24027 10.2472C5.97626 10.2462 5.71507 10.1929 5.47176 10.0904C5.22845 9.98791 5.00785 9.83825 4.82266 9.65008C4.44756 9.27497 4.23683 8.76622 4.23683 8.23574C4.23683 7.70527 4.44756 7.19651 4.82266 6.82141C5.19777 6.44631 5.70652 6.23557 6.237 6.23557C6.76747 6.23557 7.27622 6.44631 7.65133 6.82141M5.766 7.76474C5.70232 7.82624 5.65153 7.8998 5.61659 7.98114C5.58166 8.06248 5.56327 8.14996 5.5625 8.23848C5.56173 8.32699 5.57859 8.41478 5.61212 8.49671C5.64564 8.57864 5.69514 8.65308 5.75773 8.71567C5.82033 8.77827 5.89476 8.82777 5.97669 8.86129C6.05862 8.89481 6.14641 8.91168 6.23493 8.91091C6.32345 8.91014 6.41093 8.89175 6.49227 8.85681C6.5736 8.82187 6.64716 8.77108 6.70866 8.70741C6.83376 8.5824 6.90407 8.41283 6.90413 8.23598C6.90419 8.05913 6.834 7.8895 6.709 7.76441C6.58399 7.63932 6.41441 7.569 6.23757 7.56894C6.06072 7.56888 5.89109 7.63907 5.766 7.76408M3.17333 4.22808C3.14258 4.19624 3.1058 4.17085 3.06513 4.15338C3.02446 4.13591 2.98072 4.12671 2.93646 4.12633C2.8922 4.12594 2.84831 4.13438 2.80735 4.15114C2.76638 4.1679 2.72916 4.19265 2.69786 4.22394C2.66657 4.25524 2.64182 4.29246 2.62506 4.33342C2.6083 4.37439 2.59986 4.41828 2.60025 4.46254C2.60063 4.5068 2.60983 4.55054 2.6273 4.59121C2.64477 4.63188 2.67016 4.66866 2.702 4.69941C2.76486 4.76013 2.84906 4.79373 2.93646 4.79297C3.02386 4.79221 3.10747 4.75715 3.16927 4.69535C3.23107 4.63355 3.26613 4.54994 3.26689 4.46254C3.26765 4.37514 3.23405 4.29094 3.17333 4.22808Z" fill="white"/>
</g>
<defs>
<clipPath id="clip0_180_9922">
<rect width="16" height="16" fill="white"/>
</clipPath>
</defs>
</svg>
