<svg width="16" height="16" viewBox="0 0 16 16" fill="none" xmlns="http://www.w3.org/2000/svg">
<g clip-path="url(#clip0_180_9906)">
<path d="M13.9781 0.784601C13.283 0.547534 12.4378 0.605178 11.7666 0.933797V0.666748V0.566748H11.6666H4.3333H4.2333V0.666748V0.937867C3.35275 0.524502 2.13229 0.460265 1.33466 1.15769C0.975289 1.46349 0.776091 1.96733 0.750101 2.47413C0.724131 2.98055 0.870104 3.50986 1.22677 3.8683C1.90783 4.65013 2.88911 5.15633 3.72264 5.52331C3.82005 5.57624 3.88174 5.63067 3.91795 5.68361C3.95331 5.73533 3.96734 5.78979 3.96275 5.85094C3.95296 5.98147 3.85752 6.15141 3.65982 6.36559L3.6539 6.372L3.64919 6.37934C3.56166 6.51549 3.53861 6.65262 3.57111 6.77345C3.60323 6.89284 3.68651 6.98432 3.78858 7.03536C3.89062 7.08638 4.01449 7.09867 4.13201 7.05747C4.18192 7.03998 4.2293 7.01334 4.27253 6.97751C4.50585 8.13791 5.31613 9.07952 6.3912 9.51867C6.29501 9.68199 6.17156 9.83092 6.04148 9.98784C6.00212 10.0353 5.96215 10.0835 5.92215 10.1331C5.74389 10.354 5.57031 10.5967 5.48791 10.9001H4.66664C4.54391 10.9001 4.43387 10.9414 4.35426 11.021C4.27465 11.1006 4.2333 11.2107 4.2333 11.3334V13.5388L3.48213 14.7799C3.39157 14.9176 3.40782 15.0903 3.47375 15.2171C3.5389 15.3423 3.67048 15.4538 3.83981 15.4334H12.1666C12.3392 15.4334 12.48 15.336 12.5504 15.206C12.6203 15.0771 12.623 14.9102 12.5152 14.7756L11.7666 13.5388V11.3334C11.7666 11.2107 11.7253 11.1006 11.6457 11.021C11.5661 10.9414 11.456 10.9001 11.3333 10.9001H10.512C10.4294 10.5972 10.2552 10.3616 10.0772 10.1449C10.0452 10.106 10.0133 10.0678 9.98157 10.0299C9.84249 9.86372 9.70934 9.70462 9.60745 9.52201C10.6866 9.10856 11.4966 8.13736 11.7284 6.9731C11.807 7.04937 11.902 7.08532 11.9982 7.08653C12.1082 7.08792 12.2132 7.04399 12.2934 6.9767C12.3737 6.90939 12.4355 6.81338 12.4515 6.70303C12.468 6.58983 12.4348 6.47105 12.3414 6.36705C12.1133 6.10624 12.0666 5.96303 12.0666 5.86675C12.0666 5.77105 12.0933 5.70312 12.1345 5.64954C12.1773 5.59382 12.2402 5.54784 12.3214 5.50533C12.3948 5.46689 12.4763 5.43454 12.564 5.39978C12.574 5.39582 12.5841 5.39183 12.5942 5.38779C12.6899 5.34972 12.792 5.30786 12.8826 5.25378C13.3483 5.00425 13.9321 4.68307 14.4079 4.26251C14.8847 3.84098 15.2645 3.30961 15.2998 2.63867L15.2999 2.63867L15.3 2.6352C15.3087 2.14732 15.1689 1.74764 14.9285 1.43728C14.6888 1.12788 14.3534 0.912597 13.9781 0.784601ZM13.3134 4.01545L13.3123 4.01612C13.0339 4.19626 12.7466 4.34414 12.4589 4.49007C12.4419 4.49867 12.425 4.50727 12.408 4.51587C12.1919 4.6254 11.9755 4.73506 11.7666 4.85648V1.97416C12.0163 1.72834 12.4423 1.55454 12.8895 1.50787C13.3519 1.45963 13.8087 1.54997 14.0964 1.8048C14.2829 2.00797 14.3776 2.20973 14.4068 2.40401C14.4362 2.59971 14.4004 2.79578 14.3131 2.98787C14.137 3.37526 13.7553 3.73722 13.3134 4.01546L13.3134 4.01545ZM7.26761 9.76675H8.72865C8.82422 10.0213 8.98843 10.2236 9.14904 10.411C9.16615 10.431 9.1832 10.4507 9.20014 10.4704C9.32298 10.6129 9.44005 10.7486 9.53261 10.9001H6.46635C6.56115 10.7415 6.67972 10.6002 6.80434 10.4516C6.8159 10.4379 6.82751 10.424 6.83916 10.4101C6.99671 10.2218 7.15962 10.0201 7.26761 9.76675ZM4.64326 14.5667L4.92326 14.1001H11.0812L11.4079 14.5667H4.64326ZM5.09997 11.7667H10.9V13.2334H5.09997V11.7667ZM10.9 6.33342C10.9 7.74485 9.74474 8.90008 8.3333 8.90008H7.66664C6.2552 8.90008 5.09997 7.74485 5.09997 6.33342V1.43341H10.9V6.33342ZM4.2333 1.97579V4.83535C4.22149 4.82809 4.20952 4.82091 4.19745 4.81383C4.11599 4.76604 4.02363 4.71884 3.93463 4.67646C3.76546 4.59591 3.60203 4.52975 3.5396 4.50795C3.18985 4.32468 2.71822 4.07157 2.32514 3.75549C1.92683 3.4352 1.63059 3.06714 1.59981 2.66091C1.58456 2.29422 1.69539 2.03098 1.87358 1.84861C2.05406 1.6639 2.31258 1.55318 2.60569 1.51159C3.18144 1.42989 3.85309 1.61976 4.2333 1.97579Z" fill="white" stroke="white" stroke-width="0.2"/>
</g>
<defs>
<clipPath id="clip0_180_9906">
<rect width="16" height="16" fill="white"/>
</clipPath>
</defs>
</svg>
