<svg width="16" height="16" viewBox="0 0 16 16" fill="none" xmlns="http://www.w3.org/2000/svg">
<path fill-rule="evenodd" clip-rule="evenodd" d="M7.99996 0.666504C3.95 0.666504 0.666626 3.94988 0.666626 7.99984C0.666626 12.0498 3.95 15.3332 7.99996 15.3332C12.0499 15.3332 15.3333 12.0498 15.3333 7.99984C15.3333 3.94988 12.0499 0.666504 7.99996 0.666504ZM7.93347 1.64428C7.08965 1.65308 6.28592 1.82615 5.55112 2.13317H6.28934C6.42623 2.13317 6.53867 2.24562 6.53378 2.3825C6.52889 2.51939 6.656 2.62206 6.788 2.62206H6.87111C6.964 2.62206 7.04712 2.56828 7.08623 2.48517L7.31111 2.04028C7.36926 1.9242 7.4578 1.82606 7.56731 1.75633C7.67683 1.68659 7.80369 1.64787 7.93347 1.64428ZM2.98983 4.08873C2.11594 5.20493 1.64215 6.58224 1.6444 7.99984C1.6444 11.5101 4.48974 14.3554 7.99996 14.3554C11.5102 14.3554 14.3555 11.5101 14.3555 7.99984C14.3555 6.49015 13.8295 5.10366 12.9504 4.01344C12.8166 3.96488 12.6917 3.8945 12.5808 3.80517L10.7084 2.30917C10.5666 2.19673 10.3857 2.13317 10.2048 2.13317H9.50085C9.30529 2.13317 9.2124 2.36784 9.35418 2.50473L9.40796 2.5585C9.44707 2.59762 9.50085 2.62206 9.55952 2.62206H9.64752C9.81374 2.62206 9.95063 2.75406 9.95551 2.92028C9.9604 3.03762 9.99952 3.15495 10.0875 3.23806L10.376 3.5265C10.42 3.57539 10.4835 3.59984 10.5471 3.59984H11.1777C11.3146 3.59984 11.4222 3.70739 11.4222 3.84428C11.4222 3.98117 11.3146 4.08873 11.1777 4.08873H10.5813C10.4982 4.08873 10.4151 4.13273 10.376 4.20606L9.08529 6.35717C9.01196 6.4745 8.97774 6.6065 8.97774 6.74339C8.97774 6.89984 8.85063 7.02206 8.69418 7.02206H8.58174C8.5571 7.02206 8.53347 7.01227 8.51605 6.99485C8.49863 6.97743 8.48885 6.95381 8.48885 6.92917C8.48885 6.70917 8.31285 6.53317 8.09285 6.53317H7.63818C7.29596 6.53317 7.02218 6.80695 7.02218 7.14917V7.5745C7.02218 7.80917 7.21285 7.99984 7.44752 8.00962H7.50129L7.51107 7.99984H7.74574C7.88263 7.99984 7.99996 7.93628 7.99996 7.79939V7.75539C7.99996 7.6185 8.10752 7.51095 8.2444 7.51095C8.38129 7.51095 8.48885 7.6185 8.48885 7.75539V7.79939C8.48885 7.91184 8.58174 7.99984 8.68929 7.99984H8.7724C8.88485 7.99984 8.97285 8.09273 8.97285 8.20028C8.97285 8.35673 9.09996 8.48873 9.26129 8.48873H10.5422C10.7964 8.48873 11.0457 8.54739 11.2755 8.65984L11.5151 8.77717C11.7546 8.89939 11.9062 9.14384 11.9062 9.41273V9.66695C11.9062 9.82339 12.0333 9.9505 12.1897 9.9505H12.3071C12.6248 9.9505 12.884 10.2096 12.884 10.5323V10.7229C12.884 10.8598 12.8351 10.9918 12.752 11.0945L10.5422 13.7492C10.4786 13.8225 10.3857 13.8665 10.288 13.8665C10.1022 13.8665 9.95551 13.7198 9.95551 13.5341V11.7496C9.95551 11.5687 9.80885 11.4221 9.62796 11.4221C9.27107 11.4221 8.97774 11.1287 8.97774 10.7718V9.76962C8.97774 9.60339 9.10974 9.47139 9.27596 9.47139C9.37863 9.47139 9.46663 9.38828 9.46663 9.28073V9.22206C9.46663 9.08517 9.35907 8.97762 9.22218 8.97762H8.55729C8.51329 8.97762 8.46929 8.96784 8.43018 8.94828L7.06716 8.49362C7.01004 8.48745 6.95389 8.47431 6.89996 8.4545L5.98574 8.14162C5.75107 8.06339 5.59463 7.84339 5.59463 7.59406V7.36428C5.59463 7.20784 5.53596 7.05628 5.4284 6.94384L4.96885 6.45984C4.71951 6.19584 4.57774 5.84384 4.57774 5.48206V5.00784C4.57774 4.49939 4.16707 4.08873 3.65863 4.08873H2.98983Z" fill="white"/>
</svg>
