<svg width="24" height="24" viewBox="0 0 24 24" fill="none" xmlns="http://www.w3.org/2000/svg">
<g clip-path="url(#clip0_4203_10531)">
<path d="M16.4316 8.35386L15.7364 8.61349C15.7264 8.58696 15.7114 8.56268 15.6922 8.54201C15.6729 8.52135 15.6498 8.50472 15.6242 8.49304C15.5986 8.48136 15.571 8.47485 15.5429 8.47387C15.5149 8.47289 15.4868 8.47744 15.4605 8.4873C15.4342 8.49715 15.41 8.51212 15.3893 8.53137L12.5674 11.1645L12.0185 11.6767L11.5068 11.1273L8.88386 8.31071C8.84508 8.27297 8.79353 8.25132 8.73956 8.25006C8.68373 8.24876 8.6295 8.26936 8.5885 8.30765C8.54747 8.34596 8.52294 8.39894 8.52035 8.4553C8.51784 8.50987 8.53609 8.5632 8.57116 8.60461L11.1944 11.4205L11.7053 11.969L11.1572 12.4802L8.33427 15.1134L8.32819 15.119L8.32198 15.1246C8.30063 15.1436 8.28326 15.1668 8.27093 15.1927L7.59367 14.8705L8.27093 15.1927C8.25859 15.2186 8.25155 15.2468 8.25023 15.2755C8.24891 15.3042 8.25334 15.3329 8.26324 15.3599L7.64403 15.5874L8.26324 15.3599C8.27315 15.3869 8.28833 15.4115 8.30785 15.4325C8.32738 15.4534 8.35085 15.4702 8.37688 15.4819L8.37688 15.4819C8.40291 15.4936 8.43099 15.4999 8.45947 15.5006C8.48794 15.5013 8.51628 15.4962 8.54282 15.4858C8.54282 15.4858 8.54282 15.4858 8.54283 15.4858M16.4316 8.35386L9.13822 15.9761C9.04627 16.0659 8.93732 16.1365 8.81776 16.1836L8.54283 15.4858M16.4316 8.35386L15.7364 8.6135C15.7463 8.64003 15.7509 8.66828 15.7499 8.69663C15.7489 8.72497 15.7423 8.75283 15.7306 8.7786C15.7188 8.80436 15.7022 8.82753 15.6815 8.84678L12.8595 11.4799L12.3117 11.9911L12.8223 12.5394L15.4524 15.3637L15.4613 15.3732M16.4316 8.35386L15.4613 15.3732M8.54283 15.4858C8.56937 15.4753 8.59359 15.4596 8.61406 15.4396L8.62028 15.4336L8.62665 15.4276L11.4486 12.7954L11.9974 12.2836L12.509 12.8327L15.14 15.6569L15.1489 15.6664L15.1574 15.6762C15.1763 15.698 15.1994 15.7157 15.2252 15.7283C15.2511 15.7409 15.2792 15.7482 15.3078 15.7497C15.3365 15.7512 15.3652 15.7469 15.3922 15.7371L15.6488 16.4418M8.54283 15.4858L15.6488 16.4418M15.6488 16.4418C15.7705 16.3975 15.882 16.3291 15.9767 16.2408C16.0714 16.1524 16.1473 16.0459 16.2 15.9275L15.5148 15.6226M15.6488 16.4418L15.5148 15.6226M15.6488 16.4418L15.3922 15.7371C15.4192 15.7273 15.4439 15.7121 15.465 15.6924L15.9536 16.2161L15.465 15.6924C15.4861 15.6727 15.503 15.649 15.5148 15.6226M15.6488 16.4418L15.5148 15.6226M15.4613 15.3732L15.4705 15.3824M15.4613 15.3732L15.4705 15.3824M15.4705 15.3824C15.4909 15.4028 15.507 15.4272 15.5178 15.454C15.5286 15.4809 15.5339 15.5096 15.5334 15.5386C15.5329 15.5676 15.5266 15.5961 15.5148 15.6226L15.4705 15.3824Z" fill="#0A2B1D" stroke="#FF4848" stroke-width="1.5"/>
<path d="M0.75 12C0.75 5.78694 5.78694 0.75 12 0.75C18.2131 0.75 23.25 5.78694 23.25 12C23.25 18.2131 18.2131 23.25 12 23.25C5.78694 23.25 0.75 18.2131 0.75 12ZM7.95573 21.7637C9.23792 22.2948 10.6122 22.5682 12 22.5682C14.8029 22.5682 17.4909 21.4548 19.4728 19.4728C21.4548 17.4909 22.5682 14.8029 22.5682 12C22.5682 9.19714 21.4548 6.50909 19.4728 4.52717C17.4909 2.54525 14.8029 1.43182 12 1.43182C10.6122 1.43182 9.23792 1.70517 7.95573 2.23627C6.67354 2.76737 5.50851 3.54582 4.52717 4.52717C3.54582 5.50851 2.76737 6.67354 2.23627 7.95573C1.70517 9.23792 1.43182 10.6122 1.43182 12C1.43182 13.3878 1.70517 14.7621 2.23627 16.0443C2.76737 17.3265 3.54582 18.4915 4.52717 19.4728C5.50851 20.4542 6.67354 21.2326 7.95573 21.7637Z" fill="#0A2B1D" stroke="#FF4848" stroke-width="1.5"/>
</g>
<defs>
<clipPath id="clip0_4203_10531">
<rect width="24" height="24" fill="white"/>
</clipPath>
</defs>
</svg>
