<svg width="24" height="24" viewBox="0 0 24 24" fill="none" xmlns="http://www.w3.org/2000/svg">
<rect width="24" height="24" fill="#01292F"/>
<circle cx="12" cy="12" r="12" fill="#6FAA54"/>
<path d="M19.5332 19.4259C23.6935 15.2883 23.6935 8.57989 19.5332 4.44228C15.3729 0.304679 8.62773 0.304679 4.46744 4.44228C0.307151 8.57989 0.307151 15.2883 4.46744 19.4259C8.62773 23.5635 15.3729 23.5635 19.5332 19.4259Z" fill="#01292F"/>
<path d="M12 1.50049C6.21031 1.50049 1.5 6.2108 1.5 12.0005C1.5 17.7902 6.21031 22.5005 12 22.5005C17.7897 22.5005 22.5 17.7902 22.5 12.0005C22.5 6.2108 17.7897 1.50049 12 1.50049ZM3.42745 15.4648C2.29448 13.6966 2.1322 11.7729 2.11752 11.5673C2.74017 9.36815 3.82909 8.24986 4.04423 8.045C5.19776 8.20507 6.64206 8.25867 7.0672 8.27115C7.02021 8.83433 7.09657 10.5922 8.44028 12.676C8.20752 12.9866 7.2236 14.3516 6.53266 16.1403C4.54941 16.3517 3.53832 15.558 3.42745 15.4648ZM14.7821 6.15133C15.1074 7.2072 16.0355 9.59283 16.1912 9.99154C14.9327 11.8367 13.3591 13.1144 13.072 13.3398C12.7071 13.2333 10.6967 12.6716 8.65101 12.5688C7.19423 10.3198 7.28528 8.4694 7.30731 8.20801L10.2326 4.97503C10.6526 5.01762 13.3077 5.3172 14.7821 6.15133ZM8.55409 2.69954C7.68178 3.04171 6.80654 3.49549 6.13322 3.8729C7.00259 3.24364 7.97549 2.75021 9.02255 2.42419C8.76115 2.5615 8.59962 2.66797 8.55409 2.69954ZM3.88636 7.86951C3.66608 8.07437 2.67042 9.08325 2.01325 11.1003C2.20857 8.91143 3.11098 6.92304 4.4892 5.36419C3.91059 6.59629 3.88343 7.61839 3.88636 7.86951ZM13.8702 17.7131C13.865 17.3298 13.8092 15.1358 13.2365 13.5101C13.575 13.2421 15.1221 11.9689 16.3718 10.145C17.7809 10.5973 19.4344 10.8917 19.781 10.9505C19.9014 11.2655 20.4507 12.8287 20.4565 15.105C18.7934 17.5207 17.6729 18.2689 17.5092 18.3702C15.1551 18.5164 14.0824 17.8629 13.8702 17.7131ZM21.4221 15.4339L20.6915 15.069C20.6798 12.7024 20.1056 11.1319 19.9932 10.8462C20.4565 9.70811 20.6474 8.43269 20.701 8.01122C20.8332 8.05528 21.052 8.13458 21.298 8.24692C21.7679 9.40706 22.0279 10.6744 22.0279 12.0012C22.0279 13.2069 21.8142 14.3626 21.4221 15.4339ZM21.1644 7.93045C20.9345 7.83647 20.7532 7.77773 20.6753 7.7535C19.3375 5.74895 17.7647 4.59762 17.5452 4.44269C17.2808 3.89346 16.8469 3.39636 16.4401 3.01014C18.5313 4.04692 20.2113 5.79227 21.1644 7.93045ZM15.6845 2.67384C16.1413 3.0329 16.8917 3.69741 17.2889 4.46031C16.0392 4.96696 15.1118 5.71664 14.8651 5.92738C13.3349 5.07783 10.7202 4.78559 10.2613 4.73933C9.78399 3.75322 9.0879 3.06961 8.80668 2.81776C9.06441 2.66063 9.69441 2.31332 10.5682 2.07468C11.0359 2.00787 11.5132 1.97189 11.9993 1.97189C13.2997 1.97189 14.5435 2.22154 15.6845 2.67384ZM3.67783 17.5897L3.72409 17.5853L3.6536 17.4341C3.37825 16.8459 3.39955 16.1109 3.43038 15.7629C3.7586 15.9876 4.55308 16.4149 5.86374 16.4149C6.07962 16.4149 6.31017 16.4024 6.55395 16.3767C6.65969 16.5515 6.97322 17.0522 7.42259 17.6235C7.92483 18.2616 8.70315 19.1177 9.58647 19.6214C9.47853 20.5172 9.54976 21.1208 9.59308 21.366C9.40143 21.3954 8.96822 21.4373 8.37199 21.3499C6.45115 20.6017 4.81521 19.2778 3.67857 17.5912L3.67783 17.5897ZM10.8362 21.9608C10.5351 21.8668 10.1482 21.6972 9.83906 21.3991C9.80968 21.2581 9.70175 20.6391 9.81923 19.6567C10.2392 19.5715 12.1131 19.1383 13.752 17.9201C14.0097 18.1 14.9297 18.6294 16.8337 18.6294C17.0224 18.6294 17.2214 18.6236 17.4299 18.6126C17.4681 19.8065 17.0026 20.4365 16.9981 20.4423L16.8689 20.609L17.0958 20.6333C15.6016 21.5188 13.8592 22.0276 12 22.0276C11.6064 22.0276 11.218 22.0049 10.8362 21.9608Z" fill="#6FAA54" stroke="#6FAA54" stroke-width="0.5"/>
</svg>
