<svg width="14" height="15" viewBox="0 0 14 15" fill="none" xmlns="http://www.w3.org/2000/svg">
<path fill-rule="evenodd" clip-rule="evenodd" d="M1.77898 5.82496C1.77898 4.45685 2.32906 3.14478 3.3082 2.17738C4.28733 1.20998 5.61533 0.666504 7.00004 0.666504C8.38475 0.666504 9.71275 1.20998 10.6919 2.17738C11.671 3.14478 12.2211 4.45685 12.2211 5.82496V8.59873L13.5801 11.2841C13.6426 11.4077 13.6722 11.545 13.6659 11.6831C13.6596 11.8211 13.6177 11.9553 13.5442 12.0728C13.4706 12.1904 13.3679 12.2874 13.2457 12.3547C13.1236 12.422 12.986 12.4573 12.8461 12.4573H9.88952C9.72362 13.0897 9.34984 13.6498 8.82686 14.0497C8.30389 14.4495 7.66132 14.6665 7.00004 14.6665C6.33876 14.6665 5.6962 14.4495 5.17322 14.0497C4.65025 13.6498 4.27647 13.0897 4.11056 12.4573H1.15395C1.01408 12.4573 0.876531 12.422 0.754363 12.3547C0.632194 12.2874 0.529463 12.1904 0.455926 12.0728C0.382389 11.9553 0.340488 11.8211 0.334203 11.6831C0.327918 11.545 0.357457 11.4077 0.420016 11.2841L1.77898 8.59873V5.82496ZM5.7082 12.4573C5.83913 12.6813 6.02744 12.8673 6.25421 12.9967C6.48097 13.126 6.7382 13.1941 7.00004 13.1941C7.26188 13.1941 7.51911 13.126 7.74587 12.9967C7.97264 12.8673 8.16095 12.6813 8.29188 12.4573H5.7082ZM7.00004 2.14035C6.01096 2.14035 5.06239 2.52855 4.36301 3.21954C3.66362 3.91054 3.27071 4.84774 3.27071 5.82496V8.59873C3.2707 8.82742 3.21682 9.05297 3.11334 9.25754L2.24067 10.9834H11.7602L10.8875 9.25754C10.7838 9.05303 10.7296 8.82748 10.7294 8.59873V5.82496C10.7294 4.84774 10.3365 3.91054 9.63707 3.21954C8.93769 2.52855 7.98912 2.14035 7.00004 2.14035Z" fill="white"/>
</svg>
