<svg width="24" height="24" viewBox="0 0 24 24" fill="none" xmlns="http://www.w3.org/2000/svg">
<g opacity="0.5">
<path fill-rule="evenodd" clip-rule="evenodd" d="M6.77898 9.82496C6.77898 8.45685 7.32906 7.14478 8.3082 6.17738C9.28733 5.20998 10.6153 4.6665 12 4.6665C13.3848 4.6665 14.7127 5.20998 15.6919 6.17738C16.671 7.14478 17.2211 8.45685 17.2211 9.82496V12.5987L18.5801 15.2841C18.6426 15.4077 18.6722 15.545 18.6659 15.6831C18.6596 15.8211 18.6177 15.9553 18.5442 16.0728C18.4706 16.1904 18.3679 16.2874 18.2457 16.3547C18.1236 16.422 17.986 16.4573 17.8461 16.4573H14.8895C14.7236 17.0897 14.3498 17.6498 13.8269 18.0497C13.3039 18.4495 12.6613 18.6665 12 18.6665C11.3388 18.6665 10.6962 18.4495 10.1732 18.0497C9.65025 17.6498 9.27647 17.0897 9.11056 16.4573H6.15395C6.01408 16.4573 5.87653 16.422 5.75436 16.3547C5.63219 16.2874 5.52946 16.1904 5.45593 16.0728C5.38239 15.9553 5.34049 15.8211 5.3342 15.6831C5.32792 15.545 5.35746 15.4077 5.42002 15.2841L6.77898 12.5987V9.82496ZM10.7082 16.4573C10.8391 16.6813 11.0274 16.8673 11.2542 16.9967C11.481 17.126 11.7382 17.1941 12 17.1941C12.2619 17.1941 12.5191 17.126 12.7459 16.9967C12.9726 16.8673 13.1609 16.6813 13.2919 16.4573H10.7082ZM12 6.14035C11.011 6.14035 10.0624 6.52855 9.36301 7.21954C8.66362 7.91054 8.27071 8.84774 8.27071 9.82496V12.5987C8.2707 12.8274 8.21682 13.053 8.11334 13.2575L7.24067 14.9834H16.7602L15.8875 13.2575C15.7838 13.053 15.7296 12.8275 15.7294 12.5987V9.82496C15.7294 8.84774 15.3365 7.91054 14.6371 7.21954C13.9377 6.52855 12.9891 6.14035 12 6.14035Z" fill="white"/>
<path d="M5.5 19.5L19 4.5" stroke="white" stroke-linecap="round"/>
</g>
</svg>
