<svg width="13" height="12" viewBox="0 0 13 12" fill="none" xmlns="http://www.w3.org/2000/svg">
<g clip-path="url(#clip0_693_48556)">
<path d="M8.62471 1.22812C8.99521 1.29862 9.21521 1.37662 9.40471 1.61062C9.64321 1.90362 9.63071 2.22012 9.60521 2.85312C9.51521 5.12962 9.00521 8.00012 6.12521 8.00012C3.24521 8.00012 2.73471 5.13012 2.64371 2.85312C2.61871 2.22012 2.60621 1.90312 2.84371 1.61062C3.08171 1.31762 3.36621 1.26962 3.93571 1.17362C4.65928 1.05503 5.39149 0.996996 6.12471 1.00012C8.22125 1.00905 8.56769 1.22862 8.87469 1.25012" stroke="white" stroke-width="0.7" stroke-linecap="round"/>
<path d="M9.625 2.5L10.0995 2.658C10.5945 2.823 10.842 2.9055 10.9835 3.102C11.125 3.2985 11.125 3.5595 11.125 4.081V4.1175C11.125 4.5475 11.125 4.763 11.0215 4.939C10.918 5.115 10.7295 5.2195 10.3535 5.429L8.875 6.25M2.625 2.5L2.1505 2.658C1.6555 2.823 1.408 2.9055 1.2665 3.102C1.125 3.2985 1.125 3.56 1.125 4.081V4.1175C1.125 4.5475 1.125 4.763 1.2285 4.939C1.332 5.115 1.5205 5.2195 1.8965 5.429L3.375 6.25" stroke="white" stroke-width="0.7"/>
<path d="M6.125 8.5V9.5" stroke="white" stroke-width="0.7" stroke-linecap="round"/>
<path d="M7.875 11H4.375L4.545 10.152C4.56765 10.0387 4.62884 9.93673 4.71817 9.86344C4.8075 9.79016 4.91945 9.75007 5.035 9.75H7.215C7.33055 9.75007 7.4425 9.79016 7.53183 9.86344C7.62116 9.93673 7.68235 10.0387 7.705 10.152L7.875 11Z" stroke="white" stroke-width="0.7" stroke-linecap="round" stroke-linejoin="round"/>
<path d="M9.125 11H3.125" stroke="white" stroke-width="0.7" stroke-linecap="round"/>
</g>
<defs>
<clipPath id="clip0_693_48556">
<rect width="12" height="12" fill="white" transform="translate(0.125)"/>
</clipPath>
</defs>
</svg>
