<svg width="26" height="26" viewBox="0 0 26 26" fill="none" xmlns="http://www.w3.org/2000/svg">
<path d="M21.2948 21.1836C25.8755 16.6278 25.8755 9.24137 21.2948 4.68558C16.714 0.129789 9.2871 0.129789 4.70633 4.68558C0.125557 9.24137 0.125557 16.6278 4.70633 21.1836C9.2871 25.7394 16.714 25.7394 21.2948 21.1836Z" fill="#0A2B1D"/>
<path d="M13 1C6.38322 1 1 6.35386 1 12.9346C1 19.5153 6.38322 24.8691 13 24.8691C19.6168 24.8691 25 19.5153 25 12.9346C25 6.35386 19.6168 1 13 1ZM3.2028 16.8721C1.90797 14.8625 1.72252 12.6758 1.70573 12.4422C2.41734 9.94258 3.66182 8.67151 3.90769 8.43866C5.22601 8.6206 6.87664 8.68152 7.36252 8.69571C7.30881 9.33584 7.39608 11.3338 8.93175 13.7024C8.66573 14.0554 7.54126 15.6069 6.75161 17.64C4.48503 17.8803 3.32951 16.9773 3.2028 16.8713V16.8721ZM16.1796 6.28626C16.5513 7.4864 17.612 10.198 17.7899 10.6511C16.3516 12.7485 14.5533 14.2006 14.2252 14.4569C13.8081 14.3358 11.5105 13.6974 9.17259 13.5805C7.50769 11.0242 7.61175 8.92105 7.63692 8.62394L10.9801 4.94926C11.4601 4.99766 14.4954 5.33901 16.1804 6.2871L16.1796 6.28626ZM9.06182 2.36288C8.0649 2.75179 7.06462 3.26757 6.2951 3.69655C7.28867 2.98131 8.40056 2.42046 9.5972 2.04991C9.29846 2.20598 9.11385 2.32783 9.06182 2.36371V2.36288ZM3.72727 8.23919C3.47552 8.47204 2.33762 9.61876 1.58657 11.9114C1.80979 9.42347 2.84112 7.16341 4.41622 5.39159C3.75496 6.79202 3.72392 7.95293 3.72727 8.23836V8.23919ZM15.1373 19.4276C15.1315 18.992 15.0677 16.4982 14.4131 14.6505C14.8 14.3459 16.5681 12.8987 17.9964 10.8256C19.6067 11.3397 21.4965 11.6743 21.8926 11.7411C22.0302 12.0991 22.6579 13.876 22.6646 16.4632C20.7639 19.209 19.4834 20.0594 19.2962 20.1746C16.6059 20.3407 15.3807 19.5971 15.1382 19.4268L15.1373 19.4276ZM23.7681 16.8371L22.9331 16.4223C22.9197 13.7324 22.2635 11.9473 22.1351 11.6226C22.6646 10.329 22.8828 8.87932 22.9441 8.40027C23.0951 8.45034 23.3452 8.54048 23.6263 8.66817C24.1634 9.98681 24.4604 11.4273 24.4604 12.9354C24.4604 14.3058 24.2162 15.6203 23.7681 16.8379V16.8371ZM23.4736 8.30846C23.2109 8.20164 23.0036 8.13487 22.9147 8.10733C21.3857 5.82891 19.5883 4.52028 19.3373 4.34418C19.0352 3.71991 18.5393 3.1549 18.0744 2.71591C20.4643 3.89434 22.3852 5.87815 23.4744 8.30846H23.4736ZM17.2109 2.33367C17.7329 2.74178 18.5905 3.49708 19.0445 4.36421C17.6162 4.94008 16.5564 5.79219 16.2744 6.03171C14.5256 5.0661 11.5373 4.73393 11.0129 4.68136C10.4674 3.56051 9.67189 2.78351 9.35049 2.49725C9.64503 2.31864 10.365 1.92389 11.3636 1.65265C11.8982 1.5767 12.4436 1.5358 12.9992 1.5358C14.4853 1.5358 15.906 1.81873 17.2101 2.33283L17.2109 2.33367ZM3.48895 19.2874L3.54182 19.2824L3.46126 19.1105C3.14657 18.442 3.17091 17.6066 3.20615 17.211C3.58126 17.4664 4.48923 17.9521 5.98713 17.9521C6.23385 17.9521 6.49734 17.9379 6.77594 17.9087C6.89678 18.1073 7.25511 18.6765 7.76867 19.3258C8.34266 20.0511 9.23217 21.0242 10.2417 21.5967C10.1183 22.6149 10.1997 23.301 10.2492 23.5797C10.0302 23.6131 9.5351 23.6607 8.85371 23.5613C6.65846 22.7109 4.78881 21.2061 3.48979 19.2891L3.48895 19.2874ZM11.6699 24.2557C11.3259 24.1489 10.8836 23.9561 10.5303 23.6173C10.4968 23.457 10.3734 22.7535 10.5077 21.6368C10.9877 21.54 13.1292 21.0476 15.0022 19.663C15.2968 19.8675 16.3483 20.4692 18.5242 20.4692C18.7399 20.4692 18.9673 20.4625 19.2056 20.45C19.2492 21.807 18.7172 22.5231 18.7122 22.5298L18.5645 22.7192L18.8238 22.7468C17.1161 23.7533 15.1248 24.3317 13 24.3317C12.5502 24.3317 12.1071 24.305 11.6708 24.2549L11.6699 24.2557Z" fill="white" stroke="white" stroke-width="0.5"/>
</svg>
