<svg width="24" height="24" viewBox="0 0 24 24" fill="none" xmlns="http://www.w3.org/2000/svg">
<g clip-path="url(#clip0_4223_7797)">
<path fill-rule="evenodd" clip-rule="evenodd" d="M7.84355 23.5626C7.53103 23.8427 7.10739 24 6.66569 24C6.22399 24 5.80035 23.8427 5.48782 23.5626L0.487461 19.0761C0.175326 18.7957 -1.4641e-07 18.4156 -1.29087e-07 18.0193C-1.11763e-07 17.623 0.175326 17.2429 0.487461 16.9625L5.48783 12.476C5.64042 12.3291 5.82443 12.2112 6.02889 12.1295C6.23335 12.0477 6.45406 12.0038 6.67786 12.0002C6.90166 11.9967 7.12397 12.0336 7.33151 12.1088C7.53906 12.1841 7.72759 12.296 7.88586 12.438C8.04414 12.58 8.16891 12.7492 8.25274 12.9354C8.33658 13.1216 8.37774 13.3211 8.3738 13.5219C8.36985 13.7227 8.32086 13.9207 8.22976 14.1042C8.13866 14.2876 8.00731 14.4527 7.84355 14.5896L5.68784 16.5238L18.3332 16.5238C18.7753 16.5238 19.1992 16.6814 19.5118 16.9618C19.8244 17.2423 20 17.6227 20 18.0193C20 18.4159 19.8244 18.7963 19.5118 19.0768C19.1992 19.3572 18.7753 19.5148 18.3332 19.5148L5.68784 19.5148L7.84355 21.449C8.15569 21.7294 8.33101 22.1095 8.33101 22.5058C8.33101 22.9021 8.15569 23.2822 7.84355 23.5626Z" fill="#FF4848"/>
<path d="M17.3343 -2.91367e-07C16.8926 -3.10674e-07 16.469 0.15829 16.1564 0.440101C15.8443 0.722262 15.669 1.10474 15.669 1.50353C15.669 1.90232 15.8443 2.2848 16.1564 2.56697L18.3122 4.51325L5.66679 4.51325C5.22473 4.51325 4.80077 4.6718 4.48819 4.95401C4.17561 5.23623 4 5.61899 4 6.01811C4 6.41722 4.17561 6.79999 4.48819 7.0822C4.80077 7.36442 5.22473 7.52297 5.66679 7.52297L18.3122 7.52297L16.1564 9.46925C15.862 9.75452 15.7017 10.1318 15.7094 10.5217C15.717 10.9116 15.8919 11.2835 16.1973 11.5592C16.5027 11.835 16.9147 11.9929 17.3465 11.9998C17.7783 12.0066 18.1962 11.8619 18.5122 11.5961L23.5125 7.08154C23.8247 6.79938 24 6.4169 24 6.01811C24 5.61932 23.8247 5.23684 23.5125 4.95467L18.5122 0.440101C18.1997 0.15829 17.776 -2.72059e-07 17.3343 -2.91367e-07Z" fill="white"/>
</g>
<defs>
<clipPath id="clip0_4223_7797">
<rect width="24" height="24" fill="white"/>
</clipPath>
</defs>
</svg>
